ffmpeg started on 2016-12-01 at 10:52:43
Report written to "Output/x264/results/ffmpeg/old_town_cross_2160p50medium15000k.log"
Command line:
Tools/ffmpeg/ffmpeg -benchmark -y -i Input/y4m/old_town_cross_2160p50.y4m -c:v libx264 -preset medium -b:v 15000k -an Output/x264/encoded/old_town_cross_2160p50medium15000k.mkv
ffmpeg version N-82227-gdb23fde Copyright (c) 2000-2016 the FFmpeg developers
  built with gcc 5.4.0 (Ubuntu 5.4.0-6ubuntu1~16.04.2) 20160609
  configuration: --prefix=/home/jaroslav/ffmpeg_build --pkg-config-flags=--static --extra-cflags=-I/home/jaroslav/ffmpeg_build/include --extra-ldflags=-L/home/jaroslav/ffmpeg_build/lib --bindir=/home/jaroslav/bin --enable-gpl --enable-libass --enable-libfdk-aac --enable-libfreetype --enable-libmp3lame --enable-libopus --enable-libtheora --enable-libvorbis --enable-libvpx --enable-libx264 --enable-libx265 --enable-nvenc --enable-libmfx --enable-libxvid --enable-libgsm --enable-libopencore-amrnb --enable-version3 --enable-nonfree
  libavutil      55. 35.100 / 55. 35.100
  libavcodec     57. 66.101 / 57. 66.101
  libavformat    57. 57.100 / 57. 57.100
  libavdevice    57.  2.100 / 57.  2.100
  libavfilter     6. 66.100 /  6. 66.100
  libswscale      4.  3.100 /  4.  3.100
  libswresample   2.  4.100 /  2.  4.100
  libpostproc    54.  2.100 / 54.  2.100
Input #0, yuv4mpegpipe, from 'Input/y4m/old_town_cross_2160p50.y4m':
  Duration: 00:00:10.00, start: 0.000000, bitrate: 4976642 kb/s
    Stream #0:0: Video: rawvideo (I420 / 0x30323449), yuv420p(progressive), 3840x2160, SAR 1:1 DAR 16:9, 50 fps, 50 tbr, 50 tbn, 50 tbc
[libx264 @ 0x3067120] using SAR=1/1
[libx264 @ 0x3067120] using cpu capabilities: MMX2 SSE2Fast SSSE3 SSE4.2 AVX FMA3 AVX2 LZCNT BMI2
[libx264 @ 0x3067120] profile High, level 5.2
[libx264 @ 0x3067120] 264 - core 148 - H.264/MPEG-4 AVC codec - Copyleft 2003-2016 - http://www.videolan.org/x264.html - options: cabac=1 ref=3 deblock=1:0:0 analyse=0x3:0x113 me=hex subme=7 psy=1 psy_rd=1.00:0.00 mixed_ref=1 me_range=16 chroma_me=1 trellis=1 8x8dct=1 cqm=0 deadzone=21,11 fast_pskip=1 chroma_qp_offset=-2 threads=6 lookahead_threads=1 sliced_threads=0 nr=0 decimate=1 interlaced=0 bluray_compat=0 constrained_intra=0 bframes=3 b_pyramid=2 b_adapt=1 b_bias=0 direct=1 weightb=1 open_gop=0 weightp=2 keyint=250 keyint_min=25 scenecut=40 intra_refresh=0 rc_lookahead=40 rc=abr mbtree=1 bitrate=15000 ratetol=1.0 qcomp=0.60 qpmin=0 qpmax=69 qpstep=4 ip_ratio=1.40 aq=1:1.00
Output #0, matroska, to 'Output/x264/encoded/old_town_cross_2160p50medium15000k.mkv':
  Metadata:
    encoder         : Lavf57.57.100
    Stream #0:0: Video: h264 (libx264) (H264 / 0x34363248), yuv420p, 3840x2160 [SAR 1:1 DAR 16:9], q=-1--1, 15000 kb/s, 50 fps, 1k tbn, 50 tbc
    Metadata:
      encoder         : Lavc57.66.101 libx264
    Side data:
      cpb: bitrate max/min/avg: 0/0/15000000 buffer size: 0 vbv_delay: -1
Stream mapping:
  Stream #0:0 -> #0:0 (rawvideo (native) -> h264 (libx264))
Press [q] to stop, [?] for help
frame=   47 fps= 19 q=0.0 size=       0kB time=00:00:00.00 bitrate=N/A speed=   0x    frame=   53 fps= 15 q=30.0 size=       1kB time=00:00:00.00 bitrate=5872.0kbits/s speed=0.000278x    frame=   57 fps= 14 q=33.0 size=       1kB time=00:00:00.08 bitrate=  72.5kbits/s speed=0.0195x    frame=   63 fps= 13 q=49.0 size=       1kB time=00:00:00.20 bitrate=  29.2kbits/s speed=0.0429x    frame=   72 fps= 14 q=46.0 size=       1kB time=00:00:00.38 bitrate=  15.4kbits/s speed=0.0723x    frame=   81 fps= 14 q=44.0 size=       1kB time=00:00:00.56 bitrate=  10.5kbits/s speed=0.0972x    frame=   89 fps= 14 q=42.0 size=       1kB time=00:00:00.72 bitrate=   8.1kbits/s speed=0.114x    frame=   95 fps= 14 q=40.0 size=       1kB time=00:00:00.84 bitrate=   7.0kbits/s speed=0.123x    frame=  104 fps= 14 q=39.0 size=       1kB time=00:00:01.02 bitrate=   5.8kbits/s speed=0.135x    frame=  112 fps= 14 q=38.0 size=       1kB time=00:00:01.18 bitrate=   5.0kbits/s speed=0.146x    frame=  119 fps= 14 q=37.0 size=       1kB time=00:00:01.32 bitrate=   4.4kbits/s speed=0.154x    frame=  124 fps= 14 q=37.0 size=       1kB time=00:00:01.42 bitrate=   4.1kbits/s speed=0.156x    frame=  130 fps= 13 q=36.0 size=       1kB time=00:00:01.54 bitrate=   3.8kbits/s speed=0.158x    frame=  138 fps= 13 q=36.0 size=       1kB time=00:00:01.70 bitrate=   3.5kbits/s speed=0.164x    frame=  142 fps= 13 q=35.0 size=       1kB time=00:00:01.78 bitrate=   3.3kbits/s speed=0.163x    frame=  150 fps= 13 q=35.0 size=       1kB time=00:00:01.94 bitrate=   3.0kbits/s speed=0.167x    frame=  158 fps= 13 q=35.0 size=       1kB time=00:00:02.10 bitrate=   2.8kbits/s speed=0.17x    frame=  165 fps= 13 q=34.0 size=       1kB time=00:00:02.24 bitrate=   2.6kbits/s speed=0.174x    frame=  169 fps= 13 q=34.0 size=       1kB time=00:00:02.32 bitrate=   2.5kbits/s speed=0.172x    frame=  176 fps= 13 q=34.0 size=       1kB time=00:00:02.46 bitrate=   2.4kbits/s speed=0.175x    frame=  182 fps= 12 q=34.0 size=       1kB time=00:00:02.58 bitrate=   2.3kbits/s speed=0.175x    frame=  186 fps= 12 q=34.0 size=       1kB time=00:00:02.66 bitrate=   2.2kbits/s speed=0.175x    frame=  192 fps= 12 q=33.0 size=       1kB time=00:00:02.78 bitrate=   2.1kbits/s speed=0.177x    frame=  198 fps= 12 q=33.0 size=    5166kB time=00:00:02.90 bitrate=14588.9kbits/s speed=0.179x    frame=  202 fps= 12 q=33.0 size=    5166kB time=00:00:02.98 bitrate=14197.4kbits/s speed=0.177x    frame=  209 fps= 12 q=33.0 size=    5166kB time=00:00:03.12 bitrate=13560.5kbits/s speed=0.178x    frame=  215 fps= 12 q=33.0 size=    5166kB time=00:00:03.24 bitrate=13058.4kbits/s speed=0.18x    frame=  219 fps= 12 q=33.0 size=    5166kB time=00:00:03.32 bitrate=12743.9kbits/s speed=0.179x    frame=  225 fps= 12 q=33.0 size=    5166kB time=00:00:03.44 bitrate=12299.4kbits/s speed=0.178x    frame=  232 fps= 12 q=33.0 size=    5166kB time=00:00:03.58 bitrate=11818.6kbits/s speed=0.18x    frame=  237 fps= 12 q=33.0 size=    5166kB time=00:00:03.68 bitrate=11497.5kbits/s speed=0.181x    frame=  241 fps= 12 q=33.0 size=    5166kB time=00:00:03.76 bitrate=11252.9kbits/s speed=0.18x    frame=  249 fps= 11 q=33.0 size=    5166kB time=00:00:03.92 bitrate=10793.8kbits/s speed=0.18x    frame=  254 fps= 11 q=33.0 size=    5166kB time=00:00:04.02 bitrate=10525.3kbits/s speed=0.181x    frame=  259 fps= 11 q=33.0 size=    5166kB time=00:00:04.12 bitrate=10269.9kbits/s speed=0.181x    frame=  262 fps= 11 q=33.0 size=    5166kB time=00:00:04.18 bitrate=10122.5kbits/s speed=0.176x    frame=  263 fps= 11 q=33.0 size=    5166kB time=00:00:04.20 bitrate=10074.3kbits/s speed=0.173x    frame=  265 fps= 11 q=33.0 size=    5166kB time=00:00:04.24 bitrate=9979.3kbits/s speed=0.169x    frame=  270 fps= 10 q=33.0 size=    5166kB time=00:00:04.34 bitrate=9749.4kbits/s speed=0.169x    frame=  274 fps= 10 q=33.0 size=    5166kB time=00:00:04.42 bitrate=9573.0kbits/s speed=0.169x    frame=  278 fps= 10 q=33.0 size=    5166kB time=00:00:04.50 bitrate=9402.9kbits/s speed=0.168x    frame=  282 fps= 10 q=33.0 size=    5166kB time=00:00:04.58 bitrate=9238.7kbits/s speed=0.168x    frame=  286 fps= 10 q=33.0 size=    5166kB time=00:00:04.66 bitrate=9080.1kbits/s speed=0.168x    frame=  290 fps= 10 q=33.0 size=    5166kB time=00:00:04.74 bitrate=8926.9kbits/s speed=0.168x    frame=  294 fps= 10 q=33.0 size=    5166kB time=00:00:04.82 bitrate=8778.7kbits/s speed=0.168x    frame=  300 fps= 10 q=34.0 size=    9032kB time=00:00:04.94 bitrate=14974.7kbits/s speed=0.168x    frame=  306 fps= 10 q=34.0 size=    9032kB time=00:00:05.06 bitrate=14619.6kbits/s speed=0.169x    frame=  310 fps= 10 q=34.0 size=    9032kB time=00:00:05.14 bitrate=14392.1kbits/s speed=0.169x    frame=  315 fps= 10 q=34.0 size=    9032kB time=00:00:05.24 bitrate=14117.5kbits/s speed=0.169x    frame=  322 fps= 10 q=34.0 size=    9032kB time=00:00:05.38 bitrate=13750.2kbits/s speed=0.169x    frame=  329 fps= 10 q=34.0 size=    9032kB time=00:00:05.52 bitrate=13401.5kbits/s speed=0.17x    frame=  336 fps= 10 q=34.0 size=    9032kB time=00:00:05.66 bitrate=13070.1kbits/s speed=0.171x    frame=  342 fps= 10 q=34.0 size=    9032kB time=00:00:05.78 bitrate=12798.8kbits/s speed=0.171x    frame=  346 fps= 10 q=33.0 size=    9032kB time=00:00:05.86 bitrate=12624.1kbits/s speed=0.171x    frame=  351 fps= 10 q=33.0 size=    9032kB time=00:00:05.96 bitrate=12412.3kbits/s speed=0.171x    frame=  358 fps= 10 q=33.0 size=    9032kB time=00:00:06.10 bitrate=12127.5kbits/s speed=0.172x    frame=  364 fps= 10 q=33.0 size=    9032kB time=00:00:06.22 bitrate=11893.6kbits/s speed=0.173x    frame=  368 fps= 10 q=33.0 size=    9032kB time=00:00:06.30 bitrate=11742.6kbits/s speed=0.172x    frame=  374 fps= 10 q=33.0 size=    9032kB time=00:00:06.42 bitrate=11523.1kbits/s speed=0.173x    frame=  382 fps= 10 q=33.0 size=    9032kB time=00:00:06.58 bitrate=11242.9kbits/s speed=0.173x    frame=  388 fps= 10 q=33.0 size=    9032kB time=00:00:06.70 bitrate=11041.6kbits/s speed=0.174x    frame=  392 fps= 10 q=33.0 size=    9032kB time=00:00:06.78 bitrate=10911.3kbits/s speed=0.174x    frame=  398 fps= 10 q=33.0 size=    9032kB time=00:00:06.90 bitrate=10721.6kbits/s speed=0.174x    frame=  405 fps= 10 q=33.0 size=    9032kB time=00:00:07.04 bitrate=10508.4kbits/s speed=0.175x    frame=  409 fps= 10 q=33.0 size=    9032kB time=00:00:07.12 bitrate=10390.4kbits/s speed=0.175x    frame=  413 fps= 10 q=33.0 size=    9032kB time=00:00:07.20 bitrate=10274.9kbits/s speed=0.174x    frame=  418 fps= 10 q=33.0 size=    9032kB time=00:00:07.30 bitrate=10134.2kbits/s speed=0.174x    frame=  426 fps= 10 q=33.0 size=    9032kB time=00:00:07.46 bitrate=9916.9kbits/s speed=0.175x    frame=  433 fps= 10 q=33.0 size=    9032kB time=00:00:07.60 bitrate=9734.2kbits/s speed=0.176x    frame=  437 fps= 10 q=33.0 size=    9032kB time=00:00:07.68 bitrate=9632.8kbits/s speed=0.175x    frame=  442 fps= 10 q=33.0 size=    9032kB time=00:00:07.78 bitrate=9509.0kbits/s speed=0.176x    frame=  447 fps=9.9 q=33.0 size=   14180kB time=00:00:07.88 bitrate=14739.6kbits/s speed=0.175x    frame=  452 fps=9.9 q=33.0 size=   14180kB time=00:00:07.98 bitrate=14554.9kbits/s speed=0.176x    frame=  458 fps=9.9 q=33.0 size=   14180kB time=00:00:08.10 bitrate=14339.3kbits/s speed=0.176x    frame=  464 fps=9.9 q=33.0 size=   14180kB time=00:00:08.22 bitrate=14130.0kbits/s speed=0.176x    frame=  470 fps=9.9 q=33.0 size=   14180kB time=00:00:08.34 bitrate=13926.7kbits/s speed=0.176x    frame=  477 fps=9.9 q=33.0 size=   14180kB time=00:00:08.48 bitrate=13696.8kbits/s speed=0.177x    frame=  484 fps= 10 q=33.0 size=   14180kB time=00:00:08.62 bitrate=13474.4kbits/s speed=0.177x    frame=  488 fps=9.9 q=33.0 size=   14180kB time=00:00:08.70 bitrate=13350.5kbits/s speed=0.177x    frame=  493 fps=9.9 q=33.0 size=   14180kB time=00:00:08.80 bitrate=13198.8kbits/s speed=0.177x    frame=  498 fps=9.9 q=33.0 size=   14180kB time=00:00:08.90 bitrate=13050.5kbits/s speed=0.177x    frame=  500 fps=8.8 q=-1.0 Lsize=   18532kB time=00:00:09.94 bitrate=15271.4kbits/s speed=0.176x    
video:18527kB audio:0kB subtitle:0kB other streams:0kB global headers:0kB muxing overhead: 0.025427%
bench: utime=205.204s
bench: maxrss=1927556kB
[libx264 @ 0x3067120] frame I:3     Avg QP:28.07  size:684645
[libx264 @ 0x3067120] frame P:183   Avg QP:32.03  size: 55114
[libx264 @ 0x3067120] frame B:314   Avg QP:34.09  size: 21756
[libx264 @ 0x3067120] consecutive B-frames: 16.0%  0.8%  0.0% 83.2%
[libx264 @ 0x3067120] mb I  I16..4:  3.1% 84.0% 12.9%
[libx264 @ 0x3067120] mb P  I16..4:  0.1%  1.2%  0.0%  P16..4: 41.4%  3.1%  3.8%  0.0%  0.0%    skip:50.3%
[libx264 @ 0x3067120] mb B  I16..4:  0.0%  0.3%  0.0%  B16..8: 45.2%  0.3%  0.0%  direct: 0.1%  skip:54.1%  L0:49.2% L1:50.7% BI: 0.1%
[libx264 @ 0x3067120] final ratefactor: 25.41
[libx264 @ 0x3067120] 8x8 transform intra:87.8% inter:89.2%
[libx264 @ 0x3067120] coded y,uvDC,uvAC intra: 77.0% 74.4% 57.1% inter: 8.2% 7.5% 0.1%
[libx264 @ 0x3067120] i16 v,h,dc,p: 27% 30% 21% 22%
[libx264 @ 0x3067120] i8 v,h,dc,ddl,ddr,vr,hd,vl,hu:  9% 12% 45%  6%  5%  5%  7%  5%  6%
[libx264 @ 0x3067120] i4 v,h,dc,ddl,ddr,vr,hd,vl,hu: 17% 23% 16%  8%  8%  7%  9%  6%  8%
[libx264 @ 0x3067120] i8c dc,h,v,p: 70% 14% 13%  3%
[libx264 @ 0x3067120] Weighted P-Frames: Y:0.5% UV:0.0%
[libx264 @ 0x3067120] ref P L0: 51.6% 26.7% 16.8%  4.9%  0.0%
[libx264 @ 0x3067120] ref B L0: 85.0% 12.2%  2.8%
[libx264 @ 0x3067120] ref B L1: 93.8%  6.2%
[libx264 @ 0x3067120] kb/s:15176.92
